<svg xmlns="http://www.w3.org/2000/svg" xmlns:xlink="http://www.w3.org/1999/xlink" width="600" zoomAndPan="magnify" viewBox="0 0 450 112.499997" height="150" preserveAspectRatio="xMidYMid meet" version="1.0"><defs><g/><clipPath id="9337e52e01"><path d="M 3 3 L 129.425781 3 L 129.425781 108.933594 L 3 108.933594 Z M 3 3 " clip-rule="nonzero"/></clipPath></defs><path fill="#ba2700" d="M 6.554688 62.292969 C 6.179688 63.851562 5.941406 65.457031 5.84375 67.105469 C 5.832031 67.304688 5.996094 67.472656 6.195312 67.472656 L 28.675781 67.472656 C 28.984375 67.472656 29.136719 67.101562 28.917969 66.882812 C 27.332031 65.308594 25.796875 63.722656 24.316406 62.136719 C 24.25 62.066406 24.160156 62.027344 24.0625 62.027344 L 6.894531 62.027344 C 6.734375 62.027344 6.589844 62.136719 6.554688 62.292969 Z M 5.992188 72.003906 C 6.195312 73.75 6.574219 75.453125 7.09375 77.089844 C 7.140625 77.234375 7.277344 77.332031 7.425781 77.332031 L 39.3125 77.332031 C 39.632812 77.332031 39.78125 76.9375 39.535156 76.726562 C 37.625 75.074219 35.757812 73.398438 33.941406 71.710938 C 33.878906 71.652344 33.792969 71.617188 33.707031 71.617188 L 6.335938 71.617188 C 6.128906 71.617188 5.964844 71.800781 5.992188 72.003906 Z M 9.203125 81.988281 C 10.210938 83.816406 11.417969 85.523438 12.796875 87.078125 C 12.863281 87.152344 12.957031 87.195312 13.058594 87.195312 L 51.59375 87.195312 C 51.925781 87.195312 52.066406 86.773438 51.800781 86.574219 C 49.632812 84.960938 47.46875 83.289062 45.324219 81.554688 C 45.261719 81.503906 45.183594 81.476562 45.105469 81.476562 L 9.507812 81.476562 C 9.246094 81.476562 9.078125 81.757812 9.203125 81.988281 Z M 18.472656 91.976562 C 22.484375 94.59375 27.207031 96.203125 32.277344 96.4375 C 35.347656 96.578125 38.3125 96.21875 41.101562 95.4375 C 45.34375 94.25 49.8125 94.339844 54.066406 95.492188 C 56.394531 96.128906 58.847656 96.46875 61.375 96.46875 C 62.652344 96.46875 63.914062 96.378906 65.144531 96.214844 C 65.378906 96.183594 65.445312 95.867188 65.242188 95.742188 C 63.03125 94.371094 60.804688 92.921875 58.574219 91.402344 C 58.515625 91.363281 58.449219 91.339844 58.378906 91.339844 L 18.664062 91.339844 C 18.320312 91.339844 18.1875 91.789062 18.472656 91.976562 Z M 13.859375 49.796875 C 15.742188 52.28125 17.78125 54.792969 19.964844 57.3125 C 20.160156 57.535156 20.003906 57.882812 19.707031 57.882812 L 8.542969 57.882812 C 8.292969 57.882812 8.121094 57.625 8.222656 57.398438 C 9.496094 54.574219 11.230469 51.996094 13.332031 49.765625 C 13.476562 49.609375 13.730469 49.625 13.859375 49.796875 " fill-opacity="1" fill-rule="nonzero"/><g clip-path="url(#9337e52e01)"><path fill="#ff5722" d="M 121.566406 95.125 C 120.328125 94.886719 119.332031 93.890625 119.09375 92.65625 C 118.671875 90.449219 120.585938 88.539062 122.796875 88.964844 C 124.035156 89.199219 125.03125 90.191406 125.269531 91.425781 C 125.691406 93.636719 123.777344 95.542969 121.566406 95.125 Z M 33.75 7.21875 C 34.984375 7.457031 35.984375 8.449219 36.21875 9.683594 C 36.640625 11.890625 34.730469 13.800781 32.515625 13.378906 C 31.277344 13.144531 30.28125 12.148438 30.046875 10.914062 C 29.621094 8.707031 31.535156 6.796875 33.75 7.21875 Z M 46.917969 78.132812 C 62.199219 90.511719 78.253906 100.117188 92.128906 105.179688 C 98.988281 107.679688 104.984375 108.929688 109.910156 108.929688 C 115.425781 108.929688 119.59375 107.363281 122.132812 104.246094 C 123.363281 102.734375 124.160156 100.90625 124.53125 98.8125 C 127.339844 97.839844 129.367188 95.175781 129.367188 92.042969 C 129.367188 87.816406 125.6875 84.433594 121.355469 84.917969 C 117.929688 85.300781 115.222656 88.15625 115.007812 91.589844 C 114.789062 95.113281 117.140625 98.128906 120.367188 98.972656 C 120.078125 100.023438 119.621094 100.9375 118.996094 101.703125 C 115.414062 106.105469 106.125 105.992188 93.515625 101.390625 C 88.925781 99.714844 84.082031 97.523438 79.097656 94.878906 C 79.957031 95.015625 80.773438 95.261719 81.65625 95.4375 C 84.496094 95.996094 87.40625 96.578125 90.472656 96.4375 C 105.066406 95.769531 116.753906 83.703125 116.953125 69.128906 C 117.164062 53.640625 104.644531 41.019531 89.167969 41.019531 L 89.132812 41.019531 C 89.15625 40.566406 89.167969 40.109375 89.167969 39.648438 C 89.167969 24.339844 76.726562 11.921875 61.375 11.921875 C 46.027344 11.921875 33.585938 24.339844 33.585938 39.648438 C 33.585938 40.109375 33.601562 40.566406 33.625 41.019531 L 33.585938 41.019531 C 29.449219 41.019531 25.523438 41.925781 21.996094 43.546875 C 20.539062 44.214844 18.808594 43.710938 17.878906 42.40625 C 16.679688 40.726562 15.5625 39.058594 14.539062 37.414062 C 7.433594 26.042969 5.414062 17 9 12.597656 C 11.6875 9.296875 17.671875 8.519531 25.949219 10.363281 C 25.984375 14.285156 29.191406 17.46875 33.132812 17.46875 C 37.367188 17.46875 40.757812 13.796875 40.273438 9.472656 C 39.898438 6.136719 37.15625 3.46875 33.808594 3.160156 C 30.976562 2.902344 28.445312 4.296875 27.058594 6.480469 C 16.953125 4.1875 9.644531 5.410156 5.863281 10.054688 C 1.054688 15.964844 2.917969 26.4375 11.109375 39.546875 C 18.921875 52.054688 31.640625 65.757812 46.917969 78.132812 " fill-opacity="1" fill-rule="nonzero"/></g><g fill="#000000" fill-opacity="1"><g transform="translate(128.081394, 69.029997)"><g><path d="M 13.0625 0 L 6.640625 0 L 6.640625 -18.53125 L 0.828125 -18.53125 L 0.828125 -23.796875 L 18.859375 -23.796875 L 18.859375 -18.53125 L 13.0625 -18.53125 Z M 13.0625 0 "/></g></g></g><g fill="#000000" fill-opacity="1"><g transform="translate(147.766753, 69.029997)"><g><path d="M 22.96875 0 L 16.5 0 L 16.5 -9.703125 L 9.03125 -9.703125 L 9.03125 0 L 2.578125 0 L 2.578125 -23.796875 L 9.03125 -23.796875 L 9.03125 -14.96875 L 16.5 -14.96875 L 16.5 -23.796875 L 22.96875 -23.796875 Z M 22.96875 0 "/></g></g></g><g fill="#000000" fill-opacity="1"><g transform="translate(173.292643, 69.029997)"><g><path d="M 16.703125 0 L 2.578125 0 L 2.578125 -23.796875 L 16.703125 -23.796875 L 16.703125 -18.640625 L 9 -18.640625 L 9 -14.890625 L 16.125 -14.890625 L 16.125 -9.734375 L 9 -9.734375 L 9 -5.234375 L 16.703125 -5.234375 Z M 16.703125 0 "/></g></g></g><g fill="#000000" fill-opacity="1"><g transform="translate(191.578877, 69.029997)"><g/></g></g><g fill="#000000" fill-opacity="1"><g transform="translate(200.233927, 69.029997)"><g><path d="M 13.171875 -18.859375 C 11.640625 -18.859375 10.441406 -18.234375 9.578125 -16.984375 C 8.722656 -15.734375 8.296875 -14.003906 8.296875 -11.796875 C 8.296875 -7.222656 10.035156 -4.9375 13.515625 -4.9375 C 14.578125 -4.9375 15.597656 -5.082031 16.578125 -5.375 C 17.566406 -5.664062 18.5625 -6.015625 19.5625 -6.421875 L 19.5625 -1 C 17.570312 -0.113281 15.328125 0.328125 12.828125 0.328125 C 9.234375 0.328125 6.476562 -0.710938 4.5625 -2.796875 C 2.644531 -4.878906 1.6875 -7.890625 1.6875 -11.828125 C 1.6875 -14.296875 2.148438 -16.460938 3.078125 -18.328125 C 4.003906 -20.191406 5.335938 -21.625 7.078125 -22.625 C 8.828125 -23.632812 10.878906 -24.140625 13.234375 -24.140625 C 15.804688 -24.140625 18.265625 -23.578125 20.609375 -22.453125 L 18.640625 -17.390625 C 17.753906 -17.804688 16.867188 -18.15625 15.984375 -18.4375 C 15.109375 -18.71875 14.171875 -18.859375 13.171875 -18.859375 Z M 13.171875 -18.859375 "/></g></g></g><g fill="#000000" fill-opacity="1"><g transform="translate(221.855284, 69.029997)"><g><path d="M 2.578125 0 L 2.578125 -23.796875 L 9 -23.796875 L 9 -5.1875 L 18.15625 -5.1875 L 18.15625 0 Z M 2.578125 0 "/></g></g></g><g fill="#000000" fill-opacity="1"><g transform="translate(241.247802, 69.029997)"><g><path d="M 24.828125 -11.921875 C 24.828125 -7.921875 23.84375 -4.878906 21.875 -2.796875 C 19.914062 -0.710938 17.046875 0.328125 13.265625 0.328125 C 9.535156 0.328125 6.671875 -0.71875 4.671875 -2.8125 C 2.679688 -4.90625 1.6875 -7.957031 1.6875 -11.96875 C 1.6875 -15.925781 2.675781 -18.945312 4.65625 -21.03125 C 6.632812 -23.125 9.515625 -24.171875 13.296875 -24.171875 C 17.078125 -24.171875 19.941406 -23.132812 21.890625 -21.0625 C 23.847656 -18.988281 24.828125 -15.941406 24.828125 -11.921875 Z M 8.46875 -11.921875 C 8.46875 -7.328125 10.066406 -5.03125 13.265625 -5.03125 C 14.890625 -5.03125 16.09375 -5.585938 16.875 -6.703125 C 17.664062 -7.816406 18.0625 -9.554688 18.0625 -11.921875 C 18.0625 -14.304688 17.660156 -16.0625 16.859375 -17.1875 C 16.066406 -18.320312 14.878906 -18.890625 13.296875 -18.890625 C 10.078125 -18.890625 8.46875 -16.566406 8.46875 -11.921875 Z M 8.46875 -11.921875 "/></g></g></g><g fill="#000000" fill-opacity="1"><g transform="translate(267.798634, 69.029997)"><g><path d="M 22.796875 -23.796875 L 22.796875 -9.46875 C 22.796875 -6.351562 21.914062 -3.941406 20.15625 -2.234375 C 18.394531 -0.523438 15.851562 0.328125 12.53125 0.328125 C 9.289062 0.328125 6.796875 -0.5 5.046875 -2.15625 C 3.304688 -3.820312 2.4375 -6.210938 2.4375 -9.328125 L 2.4375 -23.796875 L 8.90625 -23.796875 L 8.90625 -9.828125 C 8.90625 -8.148438 9.21875 -6.929688 9.84375 -6.171875 C 10.476562 -5.410156 11.40625 -5.03125 12.625 -5.03125 C 13.9375 -5.03125 14.890625 -5.40625 15.484375 -6.15625 C 16.078125 -6.914062 16.375 -8.148438 16.375 -9.859375 L 16.375 -23.796875 Z M 22.796875 -23.796875 "/></g></g></g><g fill="#000000" fill-opacity="1"><g transform="translate(293.015416, 69.029997)"><g><path d="M 22.765625 -12.40625 C 22.765625 -8.425781 21.671875 -5.363281 19.484375 -3.21875 C 17.296875 -1.070312 14.222656 0 10.265625 0 L 2.578125 0 L 2.578125 -23.796875 L 10.8125 -23.796875 C 14.625 -23.796875 17.566406 -22.816406 19.640625 -20.859375 C 21.722656 -18.910156 22.765625 -16.09375 22.765625 -12.40625 Z M 16.09375 -12.171875 C 16.09375 -14.347656 15.660156 -15.960938 14.796875 -17.015625 C 13.929688 -18.066406 12.625 -18.59375 10.875 -18.59375 L 9 -18.59375 L 9 -5.265625 L 10.4375 -5.265625 C 12.382812 -5.265625 13.8125 -5.832031 14.71875 -6.96875 C 15.632812 -8.101562 16.09375 -9.835938 16.09375 -12.171875 Z M 16.09375 -12.171875 "/></g></g></g><g fill="#000000" fill-opacity="1"><g transform="translate(317.46756, 69.029997)"><g/></g></g><g fill="#000000" fill-opacity="1"><g transform="translate(326.12261, 69.029997)"><g><path d="M 8.90625 0 L 2.578125 0 L 2.578125 -23.796875 L 16.625 -23.796875 L 16.625 -18.640625 L 8.90625 -18.640625 L 8.90625 -14.09375 L 16.03125 -14.09375 L 16.03125 -8.9375 L 8.90625 -8.9375 Z M 8.90625 0 "/></g></g></g><g fill="#000000" fill-opacity="1"><g transform="translate(344.083466, 69.029997)"><g><path d="M 2.578125 0 L 2.578125 -23.796875 L 9 -23.796875 L 9 -5.1875 L 18.15625 -5.1875 L 18.15625 0 Z M 2.578125 0 "/></g></g></g><g fill="#000000" fill-opacity="1"><g transform="translate(363.475985, 69.029997)"><g><path d="M 16.703125 0 L 2.578125 0 L 2.578125 -23.796875 L 16.703125 -23.796875 L 16.703125 -18.640625 L 9 -18.640625 L 9 -14.890625 L 16.125 -14.890625 L 16.125 -9.734375 L 9 -9.734375 L 9 -5.234375 L 16.703125 -5.234375 Z M 16.703125 0 "/></g></g></g><g fill="#000000" fill-opacity="1"><g transform="translate(381.762218, 69.029997)"><g><path d="M 16.703125 0 L 2.578125 0 L 2.578125 -23.796875 L 16.703125 -23.796875 L 16.703125 -18.640625 L 9 -18.640625 L 9 -14.890625 L 16.125 -14.890625 L 16.125 -9.734375 L 9 -9.734375 L 9 -5.234375 L 16.703125 -5.234375 Z M 16.703125 0 "/></g></g></g><g fill="#000000" fill-opacity="1"><g transform="translate(400.048452, 69.029997)"><g><path d="M 13.0625 0 L 6.640625 0 L 6.640625 -18.53125 L 0.828125 -18.53125 L 0.828125 -23.796875 L 18.859375 -23.796875 L 18.859375 -18.53125 L 13.0625 -18.53125 Z M 13.0625 0 "/></g></g></g></svg>