<?xml version="1.0" encoding="UTF-8" standalone="no"?>
<!DOCTYPE svg PUBLIC "-//W3C//DTD SVG 1.1//EN" "http://www.w3.org/Graphics/SVG/1.1/DTD/svg11.dtd">
<svg xmlns="http://www.w3.org/2000/svg" xmlns:xlink="http://www.w3.org/1999/xlink" version="1.1" width="2640" height="1320" viewBox="0 0 2640 1320" xml:space="preserve">
<desc>Created with Fabric.js 3.6.3</desc>
<defs>
</defs>
<g transform="matrix(5.321015248055579 0 0 5.321015248055579 423.99019621806224 641.9979219844215)" clip-path="url(#CLIPPATH_28659)">
<clipPath id="CLIPPATH_28659">
	<rect transform="matrix(1 0 0 1 0 0)" x="-76" y="-57.601079236990245" rx="0" ry="0" width="152" height="115.20215847398049"/>
</clipPath>
<rect style="stroke: rgb(255,255,255); stroke-width: 0; stroke-dasharray: ; stroke-linecap: butt; stroke-dashoffset: 0; stroke-linejoin: miter; stroke-miterlimit: 4; fill: rgb(255,255,255); fill-rule: nonzero; opacity: 1;" x="-76" y="-57.601079236990245" rx="0" ry="0" width="152" height="115.20215847398049"/>
</g>
<g transform="matrix(9.363303499232707 0 0 9.368934081628513 424.07436308531896 676.6434738857447)">
<g style="">
		<g transform="matrix(1 0 0 1 0.4999715079796516 14.78326673935996)">
<path style="stroke: none; stroke-width: 1; stroke-dasharray: none; stroke-linecap: butt; stroke-dashoffset: 0; stroke-linejoin: miter; stroke-miterlimit: 4; fill: rgb(22,149,163); fill-rule: evenodd; opacity: 1;" transform=" translate(-49.99997150797965, -64.28326673935996)" d="M 49.897 35.006 c -10.223 0.206 -18.477 8.46 -18.477 18.58 S 39.777 72.373 50 72.167 h 43.354 v 21.471 L 6.646 93.49 V 58.321 C 6.592 34.507 44.934 34.653 49.897 35.006 L 49.897 35.006 z" stroke-linecap="round"/>
</g>
		<g transform="matrix(1 0 0 1 0.5000284920203484 -13.782766739359971)">
<path style="stroke: none; stroke-width: 1; stroke-dasharray: none; stroke-linecap: butt; stroke-dashoffset: 0; stroke-linejoin: miter; stroke-miterlimit: 4; fill: rgb(22,149,163); fill-rule: evenodd; opacity: 1;" transform=" translate(-50.00002849202035, -35.71723326064003)" d="M 50.103 64.994 c 10.223 -0.206 18.477 -8.46 18.477 -18.58 S 60.223 27.627 50 27.833 H 6.646 V 6.363 L 93.354 6.51 v 35.169 C 93.408 65.493 55.066 65.347 50.103 64.994 L 50.103 64.994 z" stroke-linecap="round"/>
</g>
</g>
</g>
<g transform="matrix(1 0 0 1 1693.552332879318 817.9879132535029)" style=""><path fill="#1695A3" opacity="1" d=""/><path fill="#1695A3" opacity="1" d="M-771.26 51.68L-800.87 51.68L-800.87-32.22L-843.64-32.22L-843.64-58.54L-728.32-58.54L-728.32-32.22L-771.26-32.22L-771.26 51.68Z"/><path fill="#1695A3" opacity="1" d="M-584.39-58.54L-584.39-32.22L-660.22-32.22L-660.22-15.77L-600.84-15.77L-600.84 10.55L-660.22 10.55L-660.22 25.36L-584.39 25.36L-584.39 51.68L-689.83 51.68L-689.83-58.54L-584.39-58.54Z"/><path fill="#1695A3" opacity="1" d="M-545.23 0.85L-545.23-7.71Q-545.23-18.89-542.44-28.76Q-539.64-38.63-532.90-45.95Q-526.15-53.27-514.64-57.55Q-503.12-61.83-485.69-61.83L-485.69-61.83L-479.76-61.83Q-468.58-61.83-458.05-60.43Q-447.52-59.03-437.32-56.40L-437.32-56.40L-437.32-29.59Q-443.08-31.23-448.92-32.38Q-454.76-33.53-460.43-34.28Q-466.11-35.02-471.29-35.34Q-476.47-35.67-480.59-35.67L-480.59-35.67Q-493.42-35.67-500.41-33.29Q-507.40-30.90-510.61-26.63Q-513.81-22.35-514.39-16.43Q-514.97-10.50-514.97-3.43L-514.97-3.43Q-514.97 3.64-514.39 9.56Q-513.81 15.49-510.61 19.85Q-507.40 24.20-500.41 26.59Q-493.42 28.98-480.59 28.98L-480.59 28.98Q-476.47 28.98-471.29 28.65Q-466.11 28.32-460.43 27.58Q-454.76 26.84-448.92 25.60Q-443.08 24.37-437.32 22.72L-437.32 22.72L-437.32 49.70Q-447.52 52.17-458.05 53.57Q-468.58 54.97-479.76 54.97L-479.76 54.97L-485.69 54.97Q-503.12 54.97-514.64 50.69Q-526.15 46.41-532.90 39.09Q-539.64 31.77-542.44 21.90Q-545.23 12.03-545.23 0.85L-545.23 0.85Z"/><path fill="#1695A3" opacity="1" d="M-398.01-58.54L-368.40-58.54L-368.40-15.77L-310.82-15.77L-310.82-58.54L-281.21-58.54L-281.21 51.68L-310.82 51.68L-310.82 10.55L-368.40 10.55L-368.40 51.68L-398.01 51.68L-398.01-58.54Z"/><path fill="#1695A3" opacity="1" d="M-207.35-58.54L-149.61 12.20L-149.61-58.54L-120.00-58.54L-120.00 51.68L-149.61 51.68L-207.35-19.06L-207.35 51.68L-236.96 51.68L-236.96-58.54L-207.35-58.54Z"/><path fill="#1695A3" opacity="1" d="M-75.92 0.85L-75.92-7.71Q-75.92-18.89-73.12-28.76Q-70.32-38.63-63.33-45.95Q-56.34-53.27-44.50-57.55Q-32.65-61.83-14.72-61.83L-14.72-61.83L-8.80-61.83Q9.13-61.83 20.97-57.55Q32.82-53.27 39.81-45.95Q46.80-38.63 49.60-28.76Q52.39-18.89 52.39-7.71L52.39-7.71L52.39 0.85Q52.39 12.03 49.60 21.90Q46.80 31.77 39.81 39.09Q32.82 46.41 20.97 50.69Q9.13 54.97-8.80 54.97L-8.80 54.97L-14.72 54.97Q-32.65 54.97-44.50 50.69Q-56.34 46.41-63.33 39.09Q-70.32 31.77-73.12 21.90Q-75.92 12.03-75.92 0.85L-75.92 0.85ZM-46.31-3.43L-46.31-3.43Q-46.31 2.82-45.73 8.66Q-45.16 14.50-41.95 18.94Q-38.74 23.38-31.75 26.01Q-24.76 28.65-11.76 28.65L-11.76 28.65Q1.23 28.65 8.23 26.01Q15.22 23.38 18.42 18.94Q21.63 14.50 22.21 8.66Q22.78 2.82 22.78-3.43L22.78-3.43Q22.78-9.68 22.21-15.44Q21.63-21.20 18.42-25.64Q15.22-30.08 8.23-32.71Q1.23-35.34-11.76-35.34L-11.76-35.34Q-24.76-35.34-31.75-32.71Q-38.74-30.08-41.95-25.64Q-45.16-21.20-45.73-15.44Q-46.31-9.68-46.31-3.43Z"/><path fill="#1695A3" opacity="1" d="M200.44 51.68L95.00 51.68L95.00-58.54L124.61-58.54L124.61 25.36L200.44 25.36L200.44 51.68Z"/><path fill="#1695A3" opacity="1" d="M238.61 0.85L238.61-7.71Q238.61-18.89 241.40-28.76Q244.20-38.63 251.19-45.95Q258.18-53.27 270.03-57.55Q281.87-61.83 299.80-61.83L299.80-61.83L305.72-61.83Q323.65-61.83 335.50-57.55Q347.34-53.27 354.33-45.95Q361.32-38.63 364.12-28.76Q366.92-18.89 366.92-7.71L366.92-7.71L366.92 0.85Q366.92 12.03 364.12 21.90Q361.32 31.77 354.33 39.09Q347.34 46.41 335.50 50.69Q323.65 54.97 305.72 54.97L305.72 54.97L299.80 54.97Q281.87 54.97 270.03 50.69Q258.18 46.41 251.19 39.09Q244.20 31.77 241.40 21.90Q238.61 12.03 238.61 0.85L238.61 0.85ZM268.22-3.43L268.22-3.43Q268.22 2.82 268.79 8.66Q269.37 14.50 272.58 18.94Q275.78 23.38 282.78 26.01Q289.77 28.65 302.76 28.65L302.76 28.65Q315.76 28.65 322.75 26.01Q329.74 23.38 332.95 18.94Q336.16 14.50 336.73 8.66Q337.31 2.82 337.31-3.43L337.31-3.43Q337.31-9.68 336.73-15.44Q336.16-21.20 332.95-25.64Q329.74-30.08 322.75-32.71Q315.76-35.34 302.76-35.34L302.76-35.34Q289.77-35.34 282.78-32.71Q275.78-30.08 272.58-25.64Q269.37-21.20 268.79-15.44Q268.22-9.68 268.22-3.43Z"/><path fill="#1695A3" opacity="1" d="M497.69-3.60L527.30-3.60L527.30 49.70Q515.62 52.17 503.29 53.57Q490.95 54.97 478.28 54.97L478.28 54.97L472.36 54.97Q453.44 54.97 441.02 50.69Q428.60 46.41 421.20 39.09Q413.80 31.77 410.84 21.90Q407.88 12.03 407.88 0.85L407.88 0.85L407.88-7.71Q407.88-18.89 410.84-28.76Q413.80-38.63 421.20-45.95Q428.60-53.27 441.02-57.55Q453.44-61.83 472.36-61.83L472.36-61.83L478.28-61.83Q490.13-61.83 501.64-60.43Q513.16-59.03 524.01-56.40L524.01-56.40L524.01-29.59Q511.84-32.88 499.26-34.28Q486.67-35.67 477.46-35.67L477.46-35.67Q462.66-35.67 454.68-33.29Q446.70-30.90 443.00-26.63Q439.30-22.35 438.72-16.43Q438.15-10.50 438.15-3.43L438.15-3.43Q438.15 3.64 438.72 9.56Q439.30 15.49 443.00 19.85Q446.70 24.20 454.68 26.59Q462.66 28.98 477.46 28.98L477.46 28.98Q486.34 28.98 497.69 27.99L497.69 27.99L497.69-3.60Z"/><path fill="#1695A3" opacity="1" d="M571.55-58.54L601.16-58.54L601.16 51.68L571.55 51.68L571.55-58.54Z"/><path fill="#1695A3" opacity="1" d="M750.86-58.54L750.86-32.22L675.02-32.22L675.02-15.77L734.41-15.77L734.41 10.55L675.02 10.55L675.02 25.36L750.86 25.36L750.86 51.68L645.41 51.68L645.41-58.54L750.86-58.54Z"/><path fill="#1695A3" opacity="1" d="M846.10 28.65L846.10 28.65Q854.99 28.65 860.00 27.74Q865.02 26.84 867.57 25.44Q870.12 24.04 870.78 22.31Q871.44 20.59 871.44 19.11L871.44 19.11Q871.44 16.14 870.04 14.42Q868.64 12.69 865.60 11.70Q862.55 10.72 857.54 10.30Q852.52 9.89 845.45 9.73L845.45 9.73Q841.33 9.56 835.74 9.24Q830.15 8.91 824.23 7.84Q818.30 6.77 812.55 4.71Q806.79 2.66 802.27-1.05Q797.74-4.75 794.95-10.34Q792.15-15.93 792.15-23.99L792.15-23.99L792.15-26.13Q792.15-33.21 794.70-39.70Q797.25-46.20 803.42-51.14Q809.59-56.07 820.03-58.95Q830.48-61.83 846.10-61.83L846.10-61.83L852.03-61.83Q863.38-61.83 874.07-60.43Q884.76-59.03 894.96-56.40L894.96-56.40L894.96-29.26Q882.95-32.05 871.19-33.70Q859.43-35.34 847.26-35.34L847.26-35.34Q838.37-35.34 833.27-34.44Q828.17-33.53 825.62-32.14Q823.07-30.74 822.42-29.18Q821.76-27.61 821.76-26.13L821.76-26.13Q821.76-23.17 823.16-21.36Q824.56-19.55 827.68-18.57Q830.81-17.58 835.74-17.17Q840.68-16.76 847.59-16.59L847.59-16.59Q851.53-16.43 856.96-16.18Q862.39-15.93 868.39-14.86Q874.40-13.79 880.24-11.66Q886.08-9.52 890.68-5.82Q895.29-2.12 898.17 3.56Q901.05 9.24 901.05 17.30L901.05 17.30L901.05 19.43Q901.05 26.51 898.50 32.92Q895.95 39.34 889.70 44.27Q883.45 49.21 873.08 52.09Q862.72 54.97 846.93 54.97L846.93 54.97L841.01 54.97Q828.01 54.97 815.75 53.57Q803.50 52.17 791.66 49.70L791.66 49.70L791.66 22.07Q804.98 25.03 819.21 26.84Q833.44 28.65 846.10 28.65Z"/></g><g transform="matrix(1 0 0 1 1804.4662334775724 550.0716500025023)" style=""><path fill="#545454" opacity="1" d="M-819.92 93.65L-873.58 93.65L-873.58-58.39L-951.09-58.39L-951.09-106.08L-742.12-106.08L-742.12-58.39L-819.92-58.39L-819.92 93.65Z"/><path fill="#545454" opacity="1" d="M-466.67 93.65L-518.54 93.65L-558.49 31.04Q-574.59 31.04-589.49 30.75Q-604.40 30.45-618.71 28.06L-618.71 28.06L-618.71 93.65L-672.36 93.65L-672.36-106.08Q-646.73-109.06-618.56-110.55Q-590.39-112.04-563.26-112.04L-563.26-112.04L-554.91-112.04Q-529.87-112.04-513.48-106.83Q-497.08-101.61-487.24-92.67Q-477.41-83.72-473.53-71.80Q-469.66-59.88-469.66-46.46L-469.66-46.46L-469.66-34.54Q-469.66-15.76-477.11-0.41Q-484.56 14.95-503.64 23.29L-503.64 23.29L-466.67 81.72L-466.67 93.65ZM-562.66-64.35L-562.66-64.35Q-573.10-64.35-588.45-63.75Q-603.80-63.16-618.71-61.66L-618.71-61.66L-618.71-19.33Q-604.69-17.55-592.17-17.10Q-579.65-16.65-571.90-16.65L-571.90-16.65Q-554.02-16.65-544.18-18.29Q-534.34-19.93-529.72-23.21Q-525.10-26.49-524.21-31.56Q-523.31-36.62-523.31-43.78L-523.31-43.78Q-523.31-47.65-523.91-51.38Q-524.51-55.11-528.23-58.09Q-531.96-61.07-540.01-62.71Q-548.06-64.35-562.66-64.35Z"/><path fill="#545454" opacity="1" d="M-389.17-106.08L-335.51-106.08L-335.51 93.65L-389.17 93.65L-389.17-106.08Z"/><path fill="#545454" opacity="1" d="M-95.54-6.52L-41.88-6.52L-41.88 90.07Q-63.05 94.54-85.41 97.07Q-107.76 99.61-130.72 99.61L-130.72 99.61L-141.45 99.61Q-175.73 99.61-198.24 91.86Q-220.74 84.11-234.16 70.84Q-247.57 57.58-252.94 39.69Q-258.30 21.80-258.30 1.53L-258.30 1.53L-258.30-13.97Q-258.30-34.24-252.94-52.13Q-247.57-70.01-234.16-83.28Q-220.74-96.54-198.24-104.29Q-175.73-112.04-141.45-112.04L-141.45-112.04L-130.72-112.04Q-109.25-112.04-88.39-109.51Q-67.52-106.98-47.84-102.21L-47.84-102.21L-47.84-53.62Q-69.90-59.58-92.71-62.11Q-115.51-64.65-132.21-64.65L-132.21-64.65Q-159.04-64.65-173.49-60.32Q-187.95-56.00-194.66-48.25Q-201.37-40.50-202.41-29.77Q-203.45-19.04-203.45-6.22L-203.45-6.22Q-203.45 6.60-202.41 17.33Q-201.37 28.06-194.66 35.96Q-187.95 43.86-173.49 48.18Q-159.04 52.51-132.21 52.51L-132.21 52.51Q-116.11 52.51-95.54 50.72L-95.54 50.72L-95.54-6.52Z"/><path fill="#545454" opacity="1" d="M229.39 93.65L38.31 93.65L38.31-106.08L91.96-106.08L91.96 45.95L229.39 45.95L229.39 93.65Z"/><path fill="#545454" opacity="1" d="M298.55 1.53L298.55-13.97Q298.55-34.24 303.61-52.13Q308.68-70.01 321.35-83.28Q334.02-96.54 355.48-104.29Q376.95-112.04 409.44-112.04L409.44-112.04L420.17-112.04Q452.66-112.04 474.13-104.29Q495.59-96.54 508.26-83.28Q520.93-70.01 526.00-52.13Q531.06-34.24 531.06-13.97L531.06-13.97L531.06 1.53Q531.06 21.80 526.00 39.69Q520.93 57.58 508.26 70.84Q495.59 84.11 474.13 91.86Q452.66 99.61 420.17 99.61L420.17 99.61L409.44 99.61Q376.95 99.61 355.48 91.86Q334.02 84.11 321.35 70.84Q308.68 57.58 303.61 39.69Q298.55 21.80 298.55 1.53L298.55 1.53ZM352.20-6.22L352.20-6.22Q352.20 5.11 353.25 15.69Q354.29 26.27 360.10 34.32Q365.92 42.37 378.59 47.14Q391.26 51.91 414.81 51.91L414.81 51.91Q438.36 51.91 451.02 47.14Q463.69 42.37 469.51 34.32Q475.32 26.27 476.36 15.69Q477.41 5.11 477.41-6.22L477.41-6.22Q477.41-17.55 476.36-27.98Q475.32-38.41 469.51-46.46Q463.69-54.51 451.02-59.28Q438.36-64.05 414.81-64.05L414.81-64.05Q391.26-64.05 378.59-59.28Q365.92-54.51 360.10-46.46Q354.29-38.41 353.25-27.98Q352.20-17.55 352.20-6.22Z"/><path fill="#545454" opacity="1" d="M661.93-106.08L766.56 22.10L766.56-106.08L820.22-106.08L820.22 93.65L766.56 93.65L661.93-34.54L661.93 93.65L608.27 93.65L608.27-106.08L661.93-106.08Z"/><path fill="#545454" opacity="1" d=""/></g><g transform="matrix(4.491676326393896 0 0 4.491676326393895 424.07436308531805 676.6434738857449)">
<path style="stroke: none; stroke-width: 0; stroke-dasharray: none; stroke-linecap: butt; stroke-dashoffset: 0; stroke-linejoin: miter; stroke-miterlimit: 4; fill: rgb(84,84,84); fill-rule: nonzero; opacity: 1;" transform=" translate(-41.329499999999996, -41.329499999999996)" d="M 49.527 45.446 c 6.745 -2.054 17.095 -4.054 33.132 -5.147 c -15.721 -0.516 -25.886 -2.091 -32.579 -3.859 c 1.999 -3.993 5.241 -9.289 10.538 -16.319 c -6.029 6.515 -10.694 10.662 -14.28 13.335 C 44.367 26.718 42.502 16.319 41.678 0 c -0.804 15.9 -2.594 26.189 -4.508 32.938 c -3.566 -2.609 -8.147 -6.565 -14.004 -12.639 c 5.272 6.703 8.578 11.816 10.672 15.724 C 27.003 37.979 16.415 39.818 0 40.582 c 16.802 0.915 27.26 2.908 33.919 4.971 c -2.401 3.653 -6.026 8.327 -11.525 14.287 c 5.908 -5.231 10.557 -8.706 14.213 -11.034 c 2.159 6.678 4.307 17.153 5.488 33.853 c 0.506 -16.752 2.234 -27.31 4.125 -34.065 c 3.956 2.031 9.166 5.279 16.04 10.523 C 56.186 53.43 52.189 48.953 49.527 45.446 z" stroke-linecap="round"/>
</g>
</svg>
